<?xml version="1.0" encoding="utf-8"?>
<!-- Generator: Adobe Illustrator 16.0.4, SVG Export Plug-In . SVG Version: 6.00 Build 0)  -->
<!DOCTYPE svg PUBLIC "-//W3C//DTD SVG 1.1//EN" "http://www.w3.org/Graphics/SVG/1.1/DTD/svg11.dtd">
<svg version="1.1" id="Layer_1" xmlns="http://www.w3.org/2000/svg" xmlns:xlink="http://www.w3.org/1999/xlink" x="0px" y="0px"
	 width="150px" height="150px" viewBox="0 0 150 150" enable-background="new 0 0 150 150" xml:space="preserve">
<path d="M126.655,120.811c0,5.985-4.861,11.03-10.843,11.03H29.032c-5.983,0-10.846-5.045-10.846-11.03V34.03
	c0-5.983,4.863-10.668,10.846-10.668H79.65v-7.226H29.032c-9.97,0-18.077,7.932-18.077,17.901v86.773
	c0,9.969,8.107,18.252,18.077,18.252h86.776c9.968,0,18.073-8.287,18.073-18.252V70.368h-7.229v50.442H126.655z"/>
<path d="M134.806,15.036c-5.461-5.465-14.986-5.465-20.453,0L65.845,63.544c-0.46,0.462-0.796,1.044-0.951,1.677l-5.107,20.447
	c-0.306,1.229,0.054,2.533,0.952,3.437c0.686,0.687,1.609,1.059,2.553,1.059c0.292,0,0.584-0.034,0.876-0.109l20.452-5.112
	c0.642-0.156,1.219-0.489,1.68-0.952l48.506-48.505c2.729-2.73,4.24-6.363,4.24-10.229
	C139.046,21.392,137.543,17.766,134.806,15.036z M81.899,78.171l-13.636,3.41l3.408-13.636l40.127-40.128l10.226,10.228
	L81.899,78.171z M129.695,30.371l-2.555,2.553l-10.226-10.228l2.55-2.553c2.734-2.729,7.501-2.729,10.23,0
	c1.361,1.365,2.117,3.179,2.117,5.113C131.812,27.192,131.057,29.007,129.695,30.371z"/>
</svg>
